<svg xmlns="http://www.w3.org/2000/svg" viewBox="0 0 500 500"><g id="freepik--background-complete--inject-8"><rect x="282.1" y="83.46" width="142.9" height="158.13" style="fill:#e0e0e0"></rect><rect x="288.39" y="89.73" width="130.7" height="145.92" style="fill:#f5f5f5"></rect><polygon points="325.32 89.73 288.39 228.06 288.39 153.17 305.29 89.73 325.32 89.73" style="fill:#fff"></polygon><polygon points="341.83 89.73 302.88 235.65 295.53 235.65 334.49 89.73 341.83 89.73" style="fill:#fff"></polygon><polygon points="419.08 129.52 419.08 204.42 410.81 235.65 390.77 235.65 419.08 129.52" style="fill:#fff"></polygon><rect x="351.01" y="83.46" width="5.08" height="158.13" style="fill:#e0e0e0"></rect><rect x="284.58" y="115.55" width="137.68" height="5.08" style="fill:#e0e0e0"></rect><polygon points="87.74 158.4 91.69 158.4 94.19 122.1 89.06 122.1 87.74 158.4" style="fill:#e0e0e0"></polygon><polygon points="90.03 158.4 93.98 158.4 96.49 122.1 92.53 122.1 90.03 158.4" style="fill:#f0f0f0"></polygon><polygon points="189.99 158.4 193.94 158.4 196.44 122.1 191.31 122.1 189.99 158.4" style="fill:#e0e0e0"></polygon><polygon points="192.28 158.4 196.23 158.4 198.74 122.1 194.78 122.1 192.28 158.4" style="fill:#f0f0f0"></polygon><rect x="77.98" y="115.95" width="26.33" height="6.16" style="fill:#e0e0e0"></rect><rect x="104.31" y="115.95" width="108.98" height="6.16" style="fill:#f0f0f0"></rect><rect x="77.98" y="142.95" width="26.33" height="6.16" style="fill:#e0e0e0"></rect><rect x="104.31" y="142.94" width="108.98" height="6.16" style="fill:#f0f0f0"></rect><rect x="114.98" y="82.29" width="47.18" height="33.64" rx="7.6" style="fill:#e0e0e0"></rect><path d="M157.11,112.25h-32a8,8,0,0,1-8-8V85.79a8,8,0,0,1,8-8h32a8,8,0,0,1,8,8v18.43a8,8,0,0,1-8,8Zm-32-33.65a7.2,7.2,0,0,0-7.19,7.19v18.43a7.2,7.2,0,0,0,7.19,7.19h32a7.2,7.2,0,0,0,7.19-7.19V85.79a7.2,7.2,0,0,0-7.19-7.19Z" style="fill:#e0e0e0"></path><rect x="122.39" y="82.29" width="47.18" height="33.64" rx="7.6" style="fill:#ebebeb"></rect><rect x="120.19" y="99.12" width="49.38" height="1.13" style="fill:#e0e0e0"></rect><rect x="120.19" y="104.94" width="49.38" height="1.13" style="fill:#e0e0e0"></rect><path d="M153.67,91.31a9.69,9.69,0,1,1-8.24,10.94A9.69,9.69,0,0,1,153.67,91.31Z" style="fill:#e0e0e0"></path><circle cx="155.67" cy="100.25" r="9.69" transform="matrix(0.96, -0.29, 0.29, 0.96, -22.17, 48.7)" style="fill:#f0f0f0"></circle><path d="M149.94,94.52a8.11,8.11,0,1,1,0,11.47A8.11,8.11,0,0,1,149.94,94.52Z" style="fill:#f5f5f5"></path><path d="M443.92,330.2H263.17a5.87,5.87,0,0,1-5.86-5.86V61.06a5.87,5.87,0,0,1,5.86-5.86H443.92a5.87,5.87,0,0,1,5.86,5.86V324.34A5.87,5.87,0,0,1,443.92,330.2ZM263.17,55.45a5.62,5.62,0,0,0-5.61,5.61V324.34a5.62,5.62,0,0,0,5.61,5.61H443.92a5.61,5.61,0,0,0,5.61-5.61V61.06a5.61,5.61,0,0,0-5.61-5.61Z" style="fill:#e0e0e0"></path><path d="M235.49,330.2H54.75a5.87,5.87,0,0,1-5.87-5.86V61.06a5.87,5.87,0,0,1,5.87-5.86H235.49a5.86,5.86,0,0,1,5.86,5.86V324.34A5.86,5.86,0,0,1,235.49,330.2ZM54.75,55.45a5.62,5.62,0,0,0-5.62,5.61V324.34A5.62,5.62,0,0,0,54.75,330H235.49a5.61,5.61,0,0,0,5.61-5.61V61.06a5.61,5.61,0,0,0-5.61-5.61Z" style="fill:#e0e0e0"></path><rect y="391.27" width="500" height="0.25" style="fill:#e0e0e0"></rect><rect x="51.67" y="405.53" width="16.06" height="0.25" style="fill:#e0e0e0"></rect><rect x="170.35" y="402.82" width="53.53" height="0.25" style="fill:#e0e0e0"></rect><rect x="68.73" y="414.82" width="36.25" height="0.25" style="fill:#e0e0e0"></rect><rect x="378.35" y="402.69" width="43.19" height="0.25" style="fill:#e0e0e0"></rect><rect x="430.45" y="402.69" width="6.33" height="0.25" style="fill:#e0e0e0"></rect><rect x="316.21" y="408.92" width="53.89" height="0.25" style="fill:#e0e0e0"></rect><path d="M69.84,353.79c0-.43-1.44-42.7-8.32-49.38-6.69-6.5-14.36-.24-14.68,0l-.69-.83c.08-.07,8.75-7.14,16.12,0,7.18,7,8.59,48.35,8.65,50.11Z" style="fill:#e0e0e0"></path><path d="M70.43,362.09c-.05-.5-4.7-50.74,13.65-71.79l.81.7c-18,20.71-13.44,70.49-13.39,71Z" style="fill:#e0e0e0"></path><path d="M69.75,356.78l-1.07-.07c0-.57,3.59-57.11-9.87-69.49l.73-.79C73.37,299.15,69.91,354.43,69.75,356.78Z" style="fill:#e0e0e0"></path><path d="M71.5,356.75H70.43c0-1.56.44-38.19,10.85-44.16a7.38,7.38,0,0,1,6.73-.65c6.29,2.6,9.41,13.8,9.54,14.27l-1,.29c0-.11-3.11-11.17-8.91-13.57a6.37,6.37,0,0,0-5.79.6C71.94,319.18,71.51,356.37,71.5,356.75Z" style="fill:#e0e0e0"></path><path d="M67.45,356.77l-1.07-.06c0-.29,1.57-28.95-6.17-39-1.87-2.45-3.91-3.62-6.05-3.47-5.07.36-9.32,7.77-9.36,7.85l-.94-.53c.18-.33,4.57-8,10.22-8.39,2.52-.18,4.88,1.13,7,3.88C69,327.43,67.52,355.58,67.45,356.77Z" style="fill:#e0e0e0"></path><path d="M69.15,360.67c-.21-2.78-5.06-68.22,3.47-79.75l.86.64c-8.29,11.21-3.31,78.35-3.26,79Z" style="fill:#e0e0e0"></path><path d="M90.33,318.56s-5.12,1.89-3.59,6.34,17.69,11.78,17.69,11.78,6.77-6.21.55-16.31S90.47,315.37,90.33,318.56Z" style="fill:#ebebeb"></path><path d="M68.09,310.09s5.45-.23,5.76,4.46-11.8,17.68-11.8,17.68-8.64-3.12-6.78-14.84S66.74,307.2,68.09,310.09Z" style="fill:#ebebeb"></path><path d="M63.48,287.62s3.63-.39,3.34-2.61-14.11-7.9-22.27,1.3c0,0,5.22,9,12.77,9.09S63.48,287.62,63.48,287.62Z" style="fill:#ebebeb"></path><path d="M70.25,282.24S67,283.83,66,281.8s7.8-14.17,19.59-10.67c0,0,.31,10.37-6,14.46S70.25,282.24,70.25,282.24Z" style="fill:#ebebeb"></path><path d="M53.06,316.77s2.5-2-.2-3-16-.71-16.12,12.44c0,0,15.46,2.57,17.37-2.44S53.06,316.77,53.06,316.77Z" style="fill:#ebebeb"></path><path d="M84.58,287.29s-2.51-2,.19-3,16-.7,16.12,12.44c0,0-15.46,2.57-17.37-2.44S84.58,287.29,84.58,287.29Z" style="fill:#ebebeb"></path><path d="M76.4,297.88s-.22-2.46,1.77-1.5,8.9,8.43,1.73,15.51c0,0-9.65-7.15-7.91-10.87S76.4,297.88,76.4,297.88Z" style="fill:#ebebeb"></path><path d="M50.82,301.38s1.49-2-.7-2.21-12,2.39-9.74,12.2c0,0,12-.9,12.5-5S50.82,301.38,50.82,301.38Z" style="fill:#ebebeb"></path><polygon points="92.33 393.18 51.23 393.18 46.79 348.18 96.76 348.18 92.33 393.18" style="fill:#f0f0f0"></polygon><rect x="43.56" y="343.22" width="54.36" height="9.93" style="fill:#e6e6e6"></rect><path d="M428.92,353.79c0-.43-1.45-42.7-8.33-49.38-6.68-6.5-14.36-.24-14.68,0l-.69-.83c.09-.07,8.75-7.14,16.12,0,7.19,7,8.59,48.35,8.65,50.11Z" style="fill:#e0e0e0"></path><path d="M429.5,362.09c0-.5-4.69-50.74,13.65-71.79l.81.7c-18,20.71-13.43,70.49-13.38,71Z" style="fill:#e0e0e0"></path><path d="M428.83,356.78l-1.08-.07c0-.57,3.59-57.11-9.86-69.49l.72-.79C432.45,299.15,429,354.43,428.83,356.78Z" style="fill:#e0e0e0"></path><path d="M430.58,356.75H429.5c0-1.56.45-38.19,10.85-44.16a7.4,7.4,0,0,1,6.74-.65c6.29,2.6,9.41,13.8,9.54,14.27l-1,.29c0-.11-3.11-11.17-8.92-13.57a6.35,6.35,0,0,0-5.78.6C431,319.18,430.58,356.37,430.58,356.75Z" style="fill:#e0e0e0"></path><path d="M426.53,356.77l-1.08-.06c0-.29,1.57-28.95-6.16-39-1.88-2.45-3.91-3.62-6.06-3.47-5.07.36-9.32,7.77-9.36,7.85l-.94-.53c.19-.33,4.58-8,10.22-8.39,2.53-.18,4.88,1.13,7,3.88C428.12,327.43,426.59,355.58,426.53,356.77Z" style="fill:#e0e0e0"></path><path d="M428.22,360.67c-.21-2.78-5.05-68.22,3.47-79.75l.87.64c-8.29,11.21-3.32,78.35-3.27,79Z" style="fill:#e0e0e0"></path><path d="M449.4,318.56s-5.11,1.89-3.59,6.34,17.69,11.78,17.69,11.78,6.78-6.21.56-16.31S449.54,315.37,449.4,318.56Z" style="fill:#ebebeb"></path><path d="M427.17,310.09s5.44-.23,5.75,4.46-11.8,17.68-11.8,17.68-8.64-3.12-6.78-14.84S425.81,307.2,427.17,310.09Z" style="fill:#ebebeb"></path><path d="M422.56,287.62s3.63-.39,3.34-2.61-14.12-7.9-22.28,1.3c0,0,5.23,9,12.78,9.09S422.56,287.62,422.56,287.62Z" style="fill:#ebebeb"></path><path d="M429.32,282.24s-3.28,1.59-4.21-.44,7.8-14.17,19.59-10.67c0,0,.32,10.37-6,14.46S429.32,282.24,429.32,282.24Z" style="fill:#ebebeb"></path><path d="M412.13,316.77s2.51-2-.2-3-16-.71-16.11,12.44c0,0,15.45,2.57,17.37-2.44S412.13,316.77,412.13,316.77Z" style="fill:#ebebeb"></path><path d="M443.65,287.29s-2.51-2,.2-3,16-.7,16.11,12.44c0,0-15.45,2.57-17.37-2.44S443.65,287.29,443.65,287.29Z" style="fill:#ebebeb"></path><path d="M435.48,297.88s-.22-2.46,1.76-1.5,8.91,8.43,1.74,15.51c0,0-9.66-7.15-7.92-10.87S435.48,297.88,435.48,297.88Z" style="fill:#ebebeb"></path><path d="M409.89,301.38s1.5-2-.7-2.21-12,2.39-9.73,12.2c0,0,12-.9,12.49-5S409.89,301.38,409.89,301.38Z" style="fill:#ebebeb"></path><polygon points="451.4 393.18 410.3 393.18 405.87 348.18 455.84 348.18 451.4 393.18" style="fill:#f0f0f0"></polygon><rect x="402.63" y="343.22" width="54.36" height="9.93" style="fill:#e6e6e6"></rect></g><g id="freepik--Shadow--inject-8"><path d="M458.88,451.65c0,3.39-93.52,6.13-208.88,6.13S41.12,455,41.12,451.65s93.52-6.13,208.88-6.13S458.88,448.27,458.88,451.65Z" style="fill:#f5f5f5"></path></g><g id="freepik--musical-notes--inject-8"><path d="M287.63,129.73a3.83,3.83,0,0,0-2.55-.9,3.76,3.76,0,0,1-2.81-1.23l-.11-.37a.24.24,0,0,0-.3-.17.25.25,0,0,0-.17.3l4.24,14.32a2.7,2.7,0,0,0-1.07-.35,5,5,0,0,0-2.69.49c-1.9.88-3,2.61-2.4,3.86.5,1.07,2.07,1.43,3.7.95a7.61,7.61,0,0,0,.79-.31,5,5,0,0,0,2.11-1.74,2.16,2.16,0,0,0,.3-2.08h0l-3-10a4,4,0,0,0,2.59.94,3.73,3.73,0,0,1,2.93,1.37.19.19,0,0,0,.19.05h0a.2.2,0,0,0,.09-.21l-1.06-3.54A2.51,2.51,0,0,0,287.63,129.73Z" style="fill:#263238"></path><path d="M160.83,158.2a3.8,3.8,0,0,0-2.54-.9,3.67,3.67,0,0,1-2.81-1.23l-.12-.37a.25.25,0,0,0-.3-.17.24.24,0,0,0-.16.3l4.24,14.32a2.75,2.75,0,0,0-1.07-.35,5,5,0,0,0-2.69.49c-1.91.89-3,2.62-2.4,3.86.49,1.07,2.06,1.44,3.69.95a5.36,5.36,0,0,0,.79-.3,5.06,5.06,0,0,0,2.11-1.75,2.19,2.19,0,0,0,.31-2.08h0l-3-10a3.92,3.92,0,0,0,2.6.94,3.74,3.74,0,0,1,2.93,1.37.17.17,0,0,0,.18.05h0a.18.18,0,0,0,.09-.21l-1.05-3.54A2.63,2.63,0,0,0,160.83,158.2Z" style="fill:#263238"></path><path d="M309,237.9a3.8,3.8,0,0,0-2.54-.9,3.67,3.67,0,0,1-2.81-1.23l-.11-.37a.26.26,0,0,0-.31-.17.24.24,0,0,0-.16.3l4.24,14.32a2.7,2.7,0,0,0-1.07-.35,5,5,0,0,0-2.69.49c-1.9.89-3,2.62-2.4,3.86.5,1.07,2.07,1.43,3.69,1a6,6,0,0,0,.8-.3,5,5,0,0,0,2.1-1.75,2.19,2.19,0,0,0,.31-2.08h0l-3-10a3.94,3.94,0,0,0,2.6.94,3.74,3.74,0,0,1,2.93,1.37.18.18,0,0,0,.18.05h0a.19.19,0,0,0,.08-.21l-1.05-3.54A2.57,2.57,0,0,0,309,237.9Z" style="fill:#263238"></path><path d="M431.54,155.66h0l-2.67-8.19-1-3.06-.08-.16L419.44,147l.08.16,1,3.06,2.44,7.5a3.14,3.14,0,0,0-2.8.18c-1.39.69-2.15,2-1.7,2.92s1.57,1,2.78.62a3.47,3.47,0,0,0,.55-.26c1.39-.69,2.15-2,1.72-2.89h0l-2.3-7,7.66-2.51,2.07,6.34a1.82,1.82,0,0,0-.79-.24,3.71,3.71,0,0,0-2,.41c-1.39.71-2.16,2-1.7,2.92s1.56,1,2.77.63a4,4,0,0,0,.56-.26C431.21,157.86,432,156.57,431.54,155.66Zm-10.42-4.76-.27-.81,7.67-2.51.27.81Z" style="fill:#263238"></path><path d="M90.1,135.1h0l1.05-8.56.39-3.19v-.18l-8.71-1.07v.18l-.4,3.19-1,7.83a3.14,3.14,0,0,0-2.61-1c-1.56,0-2.8.9-2.78,1.92s1,1.59,2.25,1.74a3.21,3.21,0,0,0,.62,0c1.54,0,2.78-.89,2.77-1.89h0l.9-7.36,8,1-.81,6.62a1.85,1.85,0,0,0-.62-.56,3.75,3.75,0,0,0-2-.46c-1.57,0-2.81.91-2.78,1.92s1,1.59,2.24,1.74a3.21,3.21,0,0,0,.62,0C88.87,137,90.1,136.1,90.1,135.1Zm-7.42-8.73.1-.85,8,1-.1.85Z" style="fill:#263238"></path><path d="M229.47,104.71h0L231,92.08l.57-4.7v-.27l-12.85-1.59v.28l-.58,4.7-1.42,11.56a4.64,4.64,0,0,0-3.85-1.51c-2.3.06-4.14,1.34-4.1,2.84,0,1.29,1.45,2.34,3.31,2.57a6.91,6.91,0,0,0,.91,0c2.28-.07,4.11-1.32,4.1-2.8h0l1.33-10.85,11.81,1.45-1.19,9.75a2.83,2.83,0,0,0-.91-.81,5.42,5.42,0,0,0-2.92-.69c-2.3.07-4.14,1.34-4.1,2.84,0,1.29,1.45,2.34,3.31,2.57a6.91,6.91,0,0,0,.91,0C227.65,107.45,229.47,106.19,229.47,104.71ZM218.52,91.83l.14-1.25L230.47,92l-.14,1.25Z" style="fill:#263238"></path><path d="M384.93,98.36h0l1.26-10.92.48-4.08v-.2l-10.28-.06,0,.22-.47,4.08-1.16,10a3.21,3.21,0,0,0-3.07-.91c-1.85.3-3.32,1.55-3.29,2.83,0,1.1,1.15,1.86,2.64,1.87a4.74,4.74,0,0,0,.75-.06c1.82-.27,3.26-1.5,3.28-2.79h0l1.27-10.92,9.44,0-1.13,10a3.24,3.24,0,0,0-3.08-.9,4.76,4.76,0,0,0-2.31,1,2.07,2.07,0,0,0-.82,2.55,1.54,1.54,0,0,0,.89.79,3.45,3.45,0,0,0,1.56.33,3.83,3.83,0,0,0,.76-.05C383.47,100.88,384.93,99.6,384.93,98.36Z" style="fill:#263238"></path><path d="M188,266.76h0l2.7-13.06,1-4.88,0-.24-12.43-1.19-.06.27-1,4.88-2.49,12a3.87,3.87,0,0,0-3.61-1.43c-2.27.16-4.17,1.51-4.28,3.07-.09,1.33,1.19,2.36,3,2.54a5.53,5.53,0,0,0,.91,0c2.23-.14,4.11-1.46,4.27-3h0l2.71-13.07,11.41,1.09-2.44,11.9a3.92,3.92,0,0,0-3.62-1.42,5.76,5.76,0,0,0-2.91,1,2.51,2.51,0,0,0-1.26,3,1.77,1.77,0,0,0,1,1.05,4.27,4.27,0,0,0,1.85.58,5.64,5.64,0,0,0,.92,0C186,269.64,187.9,268.26,188,266.76Z" style="fill:#263238"></path></g><g id="freepik--Table--inject-8"><g id="freepik--freepik--Table--inject-91--inject-8"><path d="M283.48,448.64h-.36a1.61,1.61,0,0,1-1.23-1.56V331.85a1.59,1.59,0,1,1,3.18,0V440.2l53.85-109.41a1.59,1.59,0,0,1,2.86,1.4L284.9,447.71A1.58,1.58,0,0,1,283.48,448.64Z" style="fill:#263238"></path><path d="M340.34,448.64a1.58,1.58,0,0,1-1.42-.9L282.05,332.16a1.59,1.59,0,0,1,2.85-1.41l53.85,109.42V331.82a1.6,1.6,0,1,1,3.19,0V447a1.61,1.61,0,0,1-1.24,1.55A2,2,0,0,1,340.34,448.64Z" style="fill:#263238"></path><path d="M296.7,326.93V319l7.64-7.6a.51.51,0,0,0,0-.72.48.48,0,0,0-.36-.15l-16.07-.05a.51.51,0,0,0-.36.87l7.58,7.64v7.91l-2.89,1.94a.38.38,0,0,0-.09.51.38.38,0,0,0,.3.15h6.92a.36.36,0,0,0,.36-.36.37.37,0,0,0-.16-.3Z" style="fill:#407BFF"></path><path d="M291.44,313.86l4.51,4.46,4.36-4.35a.44.44,0,0,0-.08-.11Z" style="fill:#407BFF"></path><path d="M328.57,326.93V319l7.64-7.6a.51.51,0,0,0,0-.72.48.48,0,0,0-.36-.15l-16.07-.05a.51.51,0,0,0-.36.87L327,319v7.91l-2.89,1.94a.36.36,0,0,0,.2.66h6.93a.36.36,0,0,0,.36-.36.37.37,0,0,0-.16-.3Z" style="fill:#407BFF"></path><path d="M323.3,313.86l4.52,4.46,4.35-4.35a.26.26,0,0,0-.07-.11Z" style="fill:#407BFF"></path><path d="M313.54,305.65l.06-16.41h-3.14l-.06,16.41a5,5,0,0,1-2.22,4.14h0a5,5,0,0,0-2.22,4.15l-.06,15.25h12l.05-15.25a5,5,0,0,0-2.19-4.16h0A5,5,0,0,1,313.54,305.65Z" style="fill:#407BFF"></path><rect x="307.51" y="314.69" width="8.87" height="11.96" transform="translate(-9.81 631.5) rotate(-89.8)" style="fill:#fff;isolation:isolate;opacity:0.4"></rect><path d="M315.4,320.77a3.49,3.49,0,1,1-3.47-3.5,3.48,3.48,0,0,1,3.47,3.5Z" style="fill:#fff;isolation:isolate;opacity:0.6000000000000001"></path><rect x="279.55" y="328.49" width="64.71" height="5.93" rx="1.23" style="fill:#263238"></rect></g></g><g id="freepik--character-3--inject-8"><polygon points="414.52 411.56 415.71 433.17 422.87 433.07 426.95 411.92 414.52 411.56" style="fill:#895555"></polygon><path d="M428.28,430.08c.49-1.22.73-2.29-.59-2.79l-1.87-.69a3.41,3.41,0,0,0-2.09.32c-5.31,1.69-5.89-2.79-7.59-3.31-2.18-.68-2.93,6.72-3.14,7.05L408.12,438c-.42.61-.45,2.2.21,2.62a1.84,1.84,0,0,0,.38.17l10.52,3.25L434,448.6c4,1.24,5.58-3.66,4-4.52a29.15,29.15,0,0,1-11-9.71A35.25,35.25,0,0,1,428.28,430.08Z" style="fill:#407BFF"></path><path d="M434,448.6l-14.73-4.55-10.52-3.25a1.84,1.84,0,0,1-.38-.17,2,2,0,0,1-.48-1.8l.2-.61,29.8,9.21A3.34,3.34,0,0,1,434,448.6Z" style="fill:#fff;opacity:0.4"></path><path d="M427.66,440.06a.23.23,0,0,1-.17-.07.24.24,0,0,1,0-.35,7.42,7.42,0,0,1,2.23-1.62.25.25,0,1,1,.21.45,7,7,0,0,0-2.08,1.51A.25.25,0,0,1,427.66,440.06Z" style="fill:#263238"></path><path d="M425.9,437.81a.27.27,0,0,1-.18-.08.25.25,0,0,1,0-.35,8.37,8.37,0,0,1,2.09-1.49.24.24,0,0,1,.33.12.25.25,0,0,1-.11.33,7.71,7.71,0,0,0-2,1.4A.29.29,0,0,1,425.9,437.81Z" style="fill:#263238"></path><path d="M425,435.59a.27.27,0,0,1-.17-.06.26.26,0,0,1,0-.36,3.46,3.46,0,0,1,1.84-1,.24.24,0,0,1,.29.19.25.25,0,0,1-.19.3,2.91,2.91,0,0,0-1.57.88A.25.25,0,0,1,425,435.59Z" style="fill:#263238"></path><path d="M427.45,432.06h-.07a5.21,5.21,0,0,0-2-.19.25.25,0,0,1-.28-.23.26.26,0,0,1,.23-.27,5.59,5.59,0,0,1,2.19.22.24.24,0,0,1,.17.31A.25.25,0,0,1,427.45,432.06Z" style="fill:#263238"></path><g style="opacity:0.30000000000000004"><path d="M420.07,429.93a2.24,2.24,0,0,1-1.5,1.56,2.77,2.77,0,0,1-1.38-.22l-4-1.36v0c.37-2,1.24-6.79,2.9-6.27,1.31.4,1.86,3.49,4.83,3.56C420.61,428.16,420.25,429.45,420.07,429.93Z"></path></g><polygon points="368.65 416.37 365.37 440.46 357.51 440.86 354.97 417.63 368.65 416.37" style="fill:#895555"></polygon><path d="M350.82,451.65h17.57a4.47,4.47,0,0,0-.05-2.7c-.07-.31-.16-.64-.27-1l0-.05c-.16-.55-.35-1.22-.55-1.94a76.3,76.3,0,0,1-1.35-9.7s-3.32-3.34-6.74-1.77c-3,1.37-2.54,3.1-2.54,3.1s-.05,4.49-2.32,6.52c-1.41,1.25-2.8,2.23-3.48,3.79a5.31,5.31,0,0,0-.29.93l0,.13A7.34,7.34,0,0,0,350.82,451.65Z" style="fill:#407BFF"></path><g style="opacity:0.4"><path d="M368.34,449a4.47,4.47,0,0,1,.05,2.7H350.82a7.34,7.34,0,0,1-.07-2.7Z" style="fill:#fff"></path></g><path d="M357.83,440.75a2.36,2.36,0,0,1,3.17.2.26.26,0,0,0,.37-.37,2.89,2.89,0,0,0-3.91-.19c-.26.2.11.56.37.36Z" style="fill:#263238"></path><path d="M357.33,442.39a2.35,2.35,0,0,1,3.17.2c.24.23.61-.13.37-.37A2.89,2.89,0,0,0,357,442c-.26.2.11.57.37.36Z" style="fill:#263238"></path><path d="M356.83,443.9a2.35,2.35,0,0,1,3.17.2c.24.23.61-.14.37-.37a2.89,2.89,0,0,0-3.9-.2c-.27.21.1.57.36.37Z" style="fill:#263238"></path><path d="M350,279.18l34.75.3,21.15-.64s20.74,57.09,22,69.15.18,77.49.18,77.49l-15.55,2.64s-7.28-69.65-8.63-76.17c-1.18-5.69-20.46-34.41-23.78-43.68-.33,1.9-.67,3.81-1,5.7-.84,8.55-2.25,39-3.43,49.15,0,0-3.82,54.72-6.78,71.54l-15.48,0c-2-23.88-3.35-107.77-3.35-107.77h0C348.9,308.7,350,279.18,350,279.18Z" style="fill:#263238"></path><g style="opacity:0.5"><path d="M397.2,288.41A20.48,20.48,0,0,0,410.91,302a.29.29,0,0,1-.15.55,21,21,0,0,1-14.1-13.94.28.28,0,0,1,.54-.15Z"></path><path d="M379.55,288.41l1.14,17c0,.36.58.36.57,0q-.3-4.35-.59-8.72c1.4,1.08,3-.23,3.49-1.67a14.19,14.19,0,0,0-.12-7.43.28.28,0,0,0-.55.14,16,16,0,0,1,.46,5,6.74,6.74,0,0,1-.53,2.62c-.45.88-1.58,1.61-2.48.82a.26.26,0,0,0-.3,0q-.27-3.86-.52-7.7C380.1,288.05,379.53,288.05,379.55,288.41Z"></path><path d="M362.93,289.37a14.27,14.27,0,0,1-13.15,14.36c-.35,0-.35-.53,0-.56a13.7,13.7,0,0,0,12.59-13.8.28.28,0,0,1,.56,0Z"></path><path d="M359.27,362.47a10.46,10.46,0,0,1-7.15,0c-.33-.12-.19-.66.15-.54a10,10,0,0,0,6.85,0c.34-.13.48.41.15.54Z"></path></g><path d="M393.73,194.84c-2.13-.09-7.08-.58-13.65-.59a157.91,157.91,0,0,0-30.22,2.8l0,68.72s-.66,9.11-2.08,18.27c20.49,6.95,47,4.4,60.28-3.24-.15.3-.87-7.2-2-18.18-1.95-19.35-5.08-49.52-8.31-66.9C397.73,195.29,394.21,194.86,393.73,194.84Z" style="fill:#407BFF"></path><path d="M364.12,196.09s.32-6.23-4.22-16.57c0,0,.53-.34.53-.35-.63-1.45-1.27-2.78-1.86-3.92a.28.28,0,0,1,0-.05l15.91,7.15c.1,3.49,2.21,10,3.32,12.68,0,0,2.53,4.84-4.21,5.95C368.67,201.79,364.12,196.09,364.12,196.09Z" style="fill:#895555"></path><path d="M375.36,187.16l-8.72-.8c1.11,2.53,3.85,5.35,9.78,4.83A25.51,25.51,0,0,1,375.36,187.16Z" style="opacity:0.2"></path><path d="M357.5,168.07c2.22,9.19,3.29,14.43,8.83,18.32,8.34,5.86,18.83-.29,19.4-10,.52-8.73-3.2-22.3-13-24.3A13.06,13.06,0,0,0,357.5,168.07Z" style="fill:#895555"></path><path d="M354.34,157.1c.37-5.35,13.2-7.68,17.25-5.7.61.29-6.32,5.46-5.89,5.21l-3.36,1.88c-.58,0-1.54.81-1.8,2.62,0,0,2.93,14.18-.37,19-3.53-1-4.72-6.63-6.34-9.81C351.41,165.59,348.28,158.57,354.34,157.1Z" style="fill:#263238"></path><path d="M385.73,176.4s-8-.25-10.69-.93a44.17,44.17,0,0,0-6.55-.86c-1.85-.1-6.64-4.4-6.64-4.4l-1.11.75-.25,9.86s6.23,9.69,15.16,7.62c8.23-1.9,10.09-9.71,10.08-12" style="opacity:0.1"></path><path d="M355.21,176.47a8.86,8.86,0,0,0,5.28,4.35c3,.89,3.51-2.33,2.73-5.21-.7-2.6-2-5.67-5.1-5.29S353.87,173.88,355.21,176.47Z" style="fill:#895555"></path><path d="M368.85,168.17c.17,1,.81,1.63,1.44,1.51s1-1,.82-1.93-.81-1.63-1.44-1.51S368.69,167.22,368.85,168.17Z" style="fill:#263238"></path><path d="M379.27,167.14c.17,1,.81,1.63,1.43,1.52s1-1,.82-1.94-.81-1.63-1.43-1.51S379.1,166.19,379.27,167.14Z" style="fill:#263238"></path><path d="M377.52,166.93s3.85,4.2,5.16,5.95c-1.11,1.43-3.49,1.28-3.49,1.28Z" style="fill:#561616"></path><path d="M368.17,164.32a.45.45,0,0,0,.43-.14,3.65,3.65,0,0,1,3-1.28.45.45,0,0,0,.15-.89,4.54,4.54,0,0,0-3.84,1.57.46.46,0,0,0,0,.64A.51.51,0,0,0,368.17,164.32Z" style="fill:#263238"></path><path d="M375.8,178.2a6.68,6.68,0,0,1-3.68-1.35.38.38,0,0,1-.1-.52.37.37,0,0,1,.52-.1,5.23,5.23,0,0,0,4,1.15.38.38,0,0,1,.44.3.39.39,0,0,1-.3.44A5.43,5.43,0,0,1,375.8,178.2Z" style="fill:#263238"></path><path d="M361.61,175.8a.26.26,0,0,1-.24-.17,4.46,4.46,0,0,0-1.19-2,2.73,2.73,0,0,0-1.64-.81,1.49,1.49,0,0,0-1.44.76.24.24,0,0,1-.33.13.25.25,0,0,1-.12-.33,2,2,0,0,1,1.92-1.06,3.14,3.14,0,0,1,1.95.95,4.85,4.85,0,0,1,1.33,2.17.24.24,0,0,1-.17.31Z" style="opacity:0.2"></path><path d="M384.06,162.18a.54.54,0,0,0,.2-.17.45.45,0,0,0-.12-.63,4.47,4.47,0,0,0-4.06-.59.47.47,0,0,0-.25.6.46.46,0,0,0,.59.24,3.47,3.47,0,0,1,3.21.5A.47.47,0,0,0,384.06,162.18Z" style="fill:#263238"></path><path d="M351.72,153.4c.36-2.2,3-3.1,5.11-3-.5-2.54,2.58-4.54,4.69-4.81a4.25,4.25,0,0,1,3.11.47,5.41,5.41,0,0,1,.89-2,6.68,6.68,0,0,1,7.05-2.56,7.26,7.26,0,0,1,5.05,5.85,3.6,3.6,0,0,1,5.07-.69,4.08,4.08,0,0,1,.62,5.35,3.23,3.23,0,0,1,3.3,3,3.18,3.18,0,0,1-3,3.27c.2,1.91.38,4.3.58,6.2L380.55,158c-1.37-.26-1.72-.81-2.2-2.19-.67,1.94-2.19,2-4.14,2.26a5.41,5.41,0,0,1-5.09-2.48,5.85,5.85,0,0,1-4.42,4,4.21,4.21,0,0,1-4.6-3.34,4.44,4.44,0,0,1-5.34,2.41A4.9,4.9,0,0,1,351.72,153.4Z" style="fill:#263238"></path><path d="M321.74,183.76s5.24-30.59,5.45-30.59l-8.41-2.57S303.82,186.74,308,193s41.52,23,41.52,23l6.55-15.83Z" style="fill:#895555"></path><path d="M362.67,195.14l-10-.57c-7.28-3-26.05-9.72-26.05-9.72l-10.55,20.8,35.41,13.71Z" style="fill:#407BFF"></path><path d="M327.19,154s7-3.35,7.34-5a5.72,5.72,0,0,0-.2-3s6.79-11.11,5.07-11.89c-.94-.42-3,2-6.19,7.34,0,0-1.08-3.1-2.91-1.89a2.29,2.29,0,0,0-3.27-1.11s-2-1.07-3.26.22-4.9,7.39-5.48,10.95,6.32,5.75,6.32,5.75Z" style="fill:#895555"></path><path d="M325.05,150.26h0a.25.25,0,0,1-.24-.26,3.5,3.5,0,0,1,1.74-2.83,9.23,9.23,0,0,1,3.33-1c-.86-1.2-1.32-3.3-.65-4.44A1.32,1.32,0,0,1,331,141c.39.15.71.69,1,1.33l.18.31c.32.52.77,1.2,1.21,1.85s.89,1.33,1.21,1.86a.26.26,0,0,1-.08.35.25.25,0,0,1-.34-.09c-.33-.52-.77-1.19-1.21-1.84s-.89-1.34-1.21-1.87c-.06-.09-.12-.2-.19-.33-.2-.35-.55-1-.8-1.1-.56-.23-.88-.11-1.21.45-.63,1.06,0,3.27.9,4.21a.26.26,0,0,1,.06.27.28.28,0,0,1-.22.16,9.1,9.1,0,0,0-3.59,1,3,3,0,0,0-1.5,2.42A.26.26,0,0,1,325.05,150.26Z" style="opacity:0.30000000000000004"></path><path d="M446.81,193.44c0,.4-14.49,31.5-14.49,31.5L414.08,209s-7.34,16-6.88,16,24.87,24.25,32.53,15.36,15.86-42.23,15.86-42.23Z" style="fill:#895555"></path><path d="M432.32,224.94s-.79,3.94.59,6.86a7,7,0,0,1-2.08-3.64,10.22,10.22,0,0,1-.09-4.59Z" style="isolation:isolate;opacity:0.2"></path><path d="M446.56,194s-1.87-7.54-.81-8.84a5.71,5.71,0,0,1,2.42-1.74s4.24-12.31,5.94-11.47c.91.45.37,3.64-1.72,9.44,0,0,3.08-1.14,3.3,1a2.29,2.29,0,0,1,2.94,1.82s2.09.83,1.92,2.65-2.59,8.48-5,11.2-8.46-1.21-8.46-1.21Z" style="fill:#895555"></path><path d="M451,193.41a.25.25,0,0,1-.19-.09.25.25,0,0,1,0-.35,3,3,0,0,0,.91-2.7,9,9,0,0,0-1.5-3.41.24.24,0,0,1,0-.27.25.25,0,0,1,.24-.13c1.3.12,3.4-.82,3.82-2,.22-.61.11-.93-.42-1.22a3.08,3.08,0,0,0-1.35.09l-.38.07c-.62.08-1.43.17-2.21.24s-1.59.17-2.2.25a.25.25,0,0,1-.07-.49c.62-.09,1.44-.17,2.22-.25s1.58-.16,2.19-.25l.35-.06a2.87,2.87,0,0,1,1.69,0,1.32,1.32,0,0,1,.65,1.83c-.44,1.24-2.36,2.23-3.83,2.32a9.41,9.41,0,0,1,1.31,3.24,3.53,3.53,0,0,1-1.08,3.15A.23.23,0,0,1,451,193.41Z" style="opacity:0.30000000000000004"></path><path d="M458.13,190.48a1.75,1.75,0,0,1-1.52-1.44,3.21,3.21,0,0,1-.09-1.07,2.62,2.62,0,0,1-.34.24,2.24,2.24,0,0,1-2.21.1,1.68,1.68,0,0,1-.76-2.07.25.25,0,0,1,.46.21,1.18,1.18,0,0,0,.55,1.43,1.73,1.73,0,0,0,1.7-.1,2.66,2.66,0,0,0,.83-.81,3.07,3.07,0,0,1,.39-.68.24.24,0,0,1,.33-.07.25.25,0,0,1,.1.32,4.8,4.8,0,0,1-.37.67,2.85,2.85,0,0,0-.11,1.71c.14.53.54,1.06,1,1.06h0a1.06,1.06,0,0,0,.81-.48,3.45,3.45,0,0,0,.45-1,.26.26,0,0,1,.32-.16.25.25,0,0,1,.16.31,4.09,4.09,0,0,1-.52,1.18,1.56,1.56,0,0,1-1.22.69Z" style="opacity:0.30000000000000004"></path><path d="M393.82,195.45c-5.06,5.59-3.82,18.9,20.07,41.41l11.42-18.51c-5.18-5.91-9.15-8.5-16.43-15.3C397.44,192.54,393.82,195.45,393.82,195.45Z" style="fill:#407BFF"></path><polygon points="401.96 224.4 400.98 211.53 405.75 228.69 401.96 224.4" style="isolation:isolate;opacity:0.2"></polygon></g><g id="freepik--character-2--inject-8"><path d="M234.21,206.9c12.33,2.92,17.49-2.3,21.29-6.83l-.84,2.16s6.16-2.87,5.54-9.3.07-5.56,2.35-8.81.27-8.14-2.64-8.76c0,0,3.93-3.58-8-9.78s-24.83-.18-25.37,6.69-9.19,9.55-12.45,5.31-5.84-2.1-5.84-2.1a4,4,0,0,1,4.41,2A8.87,8.87,0,0,0,216.5,181a12.63,12.63,0,0,1-6.55-2.37c-3.33-2.35-7.39-6.08-3.1-9.7,0,0-5.14-1.44-7.81,4.84s.76,12.06,7.1,16.72c0,0-9.67-4.86-8.82-9.13,0,0-4,6,6.75,15.1,0,0,11.35,10.2,21.45,10.83S234.21,206.9,234.21,206.9Z" style="fill:#263238"></path><path d="M251.16,208.08a65.64,65.64,0,0,0-8.1,4.76,15.93,15.93,0,0,1-3.11,1.64c-2.95,1.15-5.58,1.71-6.11.29a4.79,4.79,0,0,1-.25-1c-.32-2.31.28-5.44,2.26-6.68,2.23-1.39,3.38-2.67,3.26-4.91a16.25,16.25,0,0,0-.73-3.93l1.82-1.7,9.4-7.52C248.74,194.69,247.08,204.48,251.16,208.08Z" style="fill:#ebb376"></path><path d="M239.13,202.68c2.47-1.11,5.29-3.2,5.3-6a13.51,13.51,0,0,0-.32-3l-5.42,5.69A16.08,16.08,0,0,1,239.13,202.68Z" style="opacity:0.2"></path><path d="M253,180.2c-1.79,8.56-2.37,12.21-7.35,16.23-7.51,6-17.57,2.56-18.36-6.22-.71-7.9,2.34-20.57,11.25-23.23A11.2,11.2,0,0,1,253,180.2Z" style="fill:#ebb376"></path><path d="M242,181.68c-.14.81-.71,1.41-1.28,1.36s-.92-.75-.78-1.55.71-1.42,1.28-1.36S242.09,180.88,242,181.68Z" style="fill:#263238"></path><path d="M233,180.52c-.14.78-.71,1.37-1.28,1.32s-.91-.73-.78-1.51.71-1.37,1.28-1.31S233.14,179.75,233,180.52Z" style="fill:#263238"></path><path d="M243.68,178.74a.36.36,0,0,1-.29-.13,3.16,3.16,0,0,0-2.76-1.13.4.4,0,0,1-.47-.34.47.47,0,0,1,.38-.5A3.93,3.93,0,0,1,244,178a.44.44,0,0,1-.06.61A.48.48,0,0,1,243.68,178.74Z" style="fill:#263238"></path><path d="M230.63,176.8a.39.39,0,0,1-.3-.08.43.43,0,0,1-.05-.6,4.54,4.54,0,0,1,3.56-1.8.4.4,0,0,1,.36.46.47.47,0,0,1-.48.4,3.55,3.55,0,0,0-2.79,1.45A.49.49,0,0,1,230.63,176.8Z" style="fill:#263238"></path><path d="M234.21,189.23a25.57,25.57,0,0,1,1.18,3.36l.62-.07c2.83-.32,4-1.41,4.51-2.52a3.6,3.6,0,0,0,.26-1.71,3.55,3.55,0,0,0-.2-1c-1.39,1.07-4,1.58-5.41,1.79C234.58,189.2,234.21,189.23,234.21,189.23Z" style="fill:#263238"></path><path d="M235.17,189.1l.37,1c2.67-.31,4.5-.89,5.24-1.79a3.55,3.55,0,0,0-.2-1C239.19,188.38,236.57,188.89,235.17,189.1Z" style="fill:#fff"></path><path d="M236,192.52c2.83-.32,4-1.41,4.51-2.52a9.12,9.12,0,0,0-3.06,1A3.44,3.44,0,0,0,236,192.52Z" style="fill:#dc5753"></path><path d="M235.35,180.56a29.25,29.25,0,0,1-3.48,4.92.67.67,0,0,0,.19,1.06,4.37,4.37,0,0,0,2.32.3Z" style="fill:#d58745"></path><path d="M241.34,180.13l-1.93-.7S240.33,181,241.34,180.13Z" style="fill:#263238"></path><path d="M232.42,179.06l-1.93-.7S231.4,180,232.42,179.06Z" style="fill:#263238"></path><path d="M228.4,176.05c8.27,0,17.24-6.86,19.16-6.38-1.93.71-1.59,4-1.14,5.11,3,6.87.09,10.88,4.68,12.28,9,2.75,4.75-15.08-.86-18.05-.44-.24,0,0-.47-.16.77-8.54-15.11-3.65-18.81-.41" style="fill:#263238"></path><path d="M254.84,187.55a7,7,0,0,1-4.58,2.78c-2.35.31-3.11-3.5-2.07-5.71a4.64,4.64,0,0,1,5.53-2.38C255.86,182.94,256.24,185.66,254.84,187.55Z" style="fill:#ebb376"></path><path d="M249.73,187h0a.25.25,0,0,1-.19-.3,3.68,3.68,0,0,1,3.88-2.92.25.25,0,0,1,.23.27.24.24,0,0,1-.27.23,3.19,3.19,0,0,0-2.15.63,3.15,3.15,0,0,0-1.2,1.89A.26.26,0,0,1,249.73,187Z" style="opacity:0.2"></path><path d="M197.5,161.11l1.85,31,26.77,18.07-6.85,15.27s-19.2-15.57-27.54-24.53-1.5-41.71-1.5-41.71Z" style="fill:#ebb376"></path><path d="M196.57,163s3.13-.07,4.91-2,3.69-2.94,4.91-4.45-1.35-1-2.67-.52-2.82,1.1-3.05,0,2.56-9.9,2.07-11.32-1.38-.14-1.38-.14.62-2.16-.17-2.64c-.21-.13-.89-.08-1.33.86-1,2.12-2.81,6.68-2.81,6.68.11-.26,2-6.05,2.13-6.95.22-1.18-.28-1.85-1-2-1-.15-3.53,7-3.85,7.18,0,0,1.61-4,.79-5s-2,1.5-2.56,3.89c-.55,2.19-2.19,6.33-2.53,8.61-.43,2.8-.08,4.78,2.16,6.23A8.94,8.94,0,0,0,196.57,163Z" style="fill:#ebb373"></path><path d="M199.48,150.18h0a.14.14,0,0,1-.07-.16c.69-1.66,1.32-3.37,1.85-5.08a.13.13,0,0,1,.16-.09.13.13,0,0,1,.08.16c-.54,1.72-1.16,3.44-1.86,5.1A.12.12,0,0,1,199.48,150.18Z" style="opacity:0.30000000000000004"></path><path d="M200.21,151.75l-.07,0a11.85,11.85,0,0,0-6.46-2.22.13.13,0,0,1-.12-.13.12.12,0,0,1,.12-.12h0a12.18,12.18,0,0,1,6.59,2.26.13.13,0,0,1,0,.18A.12.12,0,0,1,200.21,151.75Z" style="opacity:0.30000000000000004"></path><path d="M195.05,159.32h0a.13.13,0,0,1-.08-.16,4.25,4.25,0,0,1,4.66-2.78.13.13,0,0,1,.1.15.12.12,0,0,1-.14.1,4,4,0,0,0-4.38,2.61A.14.14,0,0,1,195.05,159.32Z" style="opacity:0.30000000000000004"></path><path d="M258.37,232.86l4.72-21.5c-3.73-3-17.73-3.69-17.73-3.69l-21.71.66-2.71,9.28s-4.07,8.65-4.93,15.31c-.45,3.45,1.75,17.59.93,24.26l-.76,7.43c21.09,15.45,42.63,14.18,42.63,14.18-1-2.81-6.35-11.73-6.84-14.49.19-3.55-.5-6,2.37-13.11C256.35,246.22,258.38,233.65,258.37,232.86Z" style="fill:#263238"></path><path d="M217.08,250.51a82.18,82.18,0,0,1-1.29,15.15l36.26,1s.3-4.17.67-7.51a63.68,63.68,0,0,1,1.62-7.95Z" style="fill:#ebb376"></path><path d="M227.84,208.16s-3.17,14.41,3.42,17.32,12.62-2.25,16.8-6,7.8-10.64,7.8-10.64l-9.38-1.53Z" style="fill:#ebb376"></path><g id="freepik--freepik--Character--inject-85--inject-8"><path d="M213.73,284.09s-28.26,63.05-23.43,70.16c15,26,37.95,58.13,41.53,66.2.88,1.2,5.44-1.26,6.14-2.75a37.64,37.64,0,0,0-1.64-9.32c-11.05-38.64-5.2-34-23.43-59.57,15.49-21.57,26.89-54.49,26.89-54.49Z" style="fill:#ebb376"></path><path d="M222.81,266.65s14.22,54.89,19.86,81.89c5.91,28.3,13.71,75.9,12.05,94.7,1.59.94,4.52,1.07,7.73.06,0,0,12.69-63.21-.09-93.52,5.61-67.06-1.68-65.69-1.68-65.69Z" style="fill:#ebb376"></path><path d="M261.49,282.3c-1.7-5-6.73-13.06-9.52-17.5l-36-.19-3.16,15-.33,2.76-9.63,24.67,27.68,12,1.12-2.85,2.14-4.71,1.7,7.81h0l30.53-5.83C266.11,301.58,265.28,293.54,261.49,282.3Z" style="fill:#407BFF"></path><path d="M228.67,268a1,1,0,1,1-1,1A1,1,0,0,1,228.67,268Z" style="fill:#407BFF"></path></g><polygon points="233.83 311.46 227.69 290.66 231.69 316.17 233.83 311.46" style="isolation:isolate;opacity:0.2"></polygon><path d="M229.05,418.2l2.61-1.23a2,2,0,0,1,1.85.08c2.47,1.35,3.24,0,4-2.66,1-.62,1.83.45,2.06.73l5.29,6.19a1.23,1.23,0,0,1-.12,1.74,1.17,1.17,0,0,1-.3.19l-8.62,4.05L223.71,433c-3.29,1.55-5.53-1.45-4.32-2.39,5.47-4.21,8.94-8,10-10.69C229.59,419.4,229.12,419.34,229.05,418.2Z" style="fill:#263238"></path><path d="M226.29,422.45a13.2,13.2,0,0,0,2.3-1.47.16.16,0,0,0,0-.22.15.15,0,0,0-.13-.05c-.45,0-4.43,0-5,1a.54.54,0,0,0,0,.56,1.21,1.21,0,0,0,.85.64A3.21,3.21,0,0,0,226.29,422.45ZM228,421c-.87.63-2.55,1.71-3.56,1.5a.93.93,0,0,1-.61-.47.2.2,0,0,1,0-.23C224.1,421.3,226.35,421.07,228,421Z" style="fill:#407BFF"></path><path d="M228.56,421a.19.19,0,0,0,.1-.05.14.14,0,0,0,0-.17c-.06-.14-2.34-3-4-2-.42.27-.45.54-.38.73.29.91,3.1,1.55,4.27,1.5Zm-3.67-2c1.14-.53,2.68,1,3.25,1.68-1.33-.06-3.45-.69-3.6-1.26,0,0-.08-.16.24-.35Z" style="fill:#407BFF"></path><path d="M231.07,421.7a.2.2,0,0,1-.13,0,3.28,3.28,0,0,0-2.68-.36.25.25,0,0,1-.32-.16.24.24,0,0,1,.17-.31,3.76,3.76,0,0,1,3.1.41.26.26,0,0,1,.07.35A.26.26,0,0,1,231.07,421.7Z" style="fill:#407BFF"></path><path d="M230,423.69a.2.2,0,0,1-.13,0,3.25,3.25,0,0,0-2.68-.36.26.26,0,0,1-.32-.16.26.26,0,0,1,.17-.32,3.73,3.73,0,0,1,3.1.42.24.24,0,0,1,.07.34A.25.25,0,0,1,230,423.69Z" style="fill:#407BFF"></path><path d="M228.48,425.66a.22.22,0,0,1-.13,0,3.24,3.24,0,0,0-2.68-.35.25.25,0,0,1-.31-.17.24.24,0,0,1,.16-.31,3.76,3.76,0,0,1,3.1.41.26.26,0,0,1,.07.35A.24.24,0,0,1,228.48,425.66Z" style="fill:#407BFF"></path><path d="M253.66,439.79h2.89a2.07,2.07,0,0,1,1.64.85c1.66,2.28,2.91,1.42,4.72-.72,1.15-.13,1.46,1.19,1.56,1.54l2.16,7.85a1.25,1.25,0,0,1-.85,1.53,1.11,1.11,0,0,1-.36,0H242.55c-3.63,0-4.39-3.66-2.89-4,6.74-1.49,11.51-3.47,13.59-5.43C253.64,441.11,253.24,440.85,253.66,439.79Z" style="fill:#263238"></path><path d="M249.36,442.46a13,13,0,0,0,2.7-.35.16.16,0,0,0,.1-.2.17.17,0,0,0-.1-.1c-.4-.2-4-1.88-4.92-1.24a.52.52,0,0,0-.23.51,1.15,1.15,0,0,0,.49.94A3.2,3.2,0,0,0,249.36,442.46Zm2.14-.56c-1.07.19-3.05.46-3.87-.16a.94.94,0,0,1-.36-.68.23.23,0,0,1,.1-.22C247.87,440.49,250,441.24,251.5,441.9Z" style="fill:#407BFF"></path><path d="M252,442.12h.12a.17.17,0,0,0,0-.17c0-.15-.85-3.7-2.82-3.47-.49.06-.63.3-.65.49-.13.95,2.14,2.73,3.23,3.18Zm-2.47-3.36c1.26,0,2,2.07,2.23,2.9-1.18-.62-2.83-2.1-2.72-2.68,0,0,0-.17.36-.21Z" style="fill:#407BFF"></path><path d="M254.11,443.84a.25.25,0,0,1-.22-.12,3.21,3.21,0,0,0-2.27-1.46.25.25,0,0,1-.21-.28.24.24,0,0,1,.28-.21,3.71,3.71,0,0,1,2.63,1.69.24.24,0,0,1-.08.34A.22.22,0,0,1,254.11,443.84Z" style="fill:#407BFF"></path><path d="M252.31,445.19a.26.26,0,0,1-.21-.11,3.26,3.26,0,0,0-2.27-1.47.26.26,0,0,1-.22-.28.25.25,0,0,1,.29-.21,3.71,3.71,0,0,1,2.63,1.69.25.25,0,0,1-.08.34A.23.23,0,0,1,252.31,445.19Z" style="fill:#407BFF"></path><path d="M250.08,446.33a.25.25,0,0,1-.21-.12,3.22,3.22,0,0,0-2.27-1.46.26.26,0,0,1-.22-.29.26.26,0,0,1,.28-.21,3.75,3.75,0,0,1,2.63,1.69.25.25,0,0,1-.08.35A.28.28,0,0,1,250.08,446.33Z" style="fill:#407BFF"></path><path d="M287.38,176.46l-6.55,3.67,3.93,22.27-27,6.81L260,224.74s23.4-6.51,34.78-12.34C304.65,207.35,287.38,176.46,287.38,176.46Z" style="fill:#ebb376"></path><path d="M281.55,180.11s-3.14-.15-4.86-2.09-3.62-3-4.81-4.56,1.38-1,2.68-.46,2.79,1.17,3.05.12-2.32-10-1.8-11.37,1.39-.1,1.39-.1-.57-2.18.23-2.64c.21-.12.89-.06,1.3.89.94,2.15,2.66,6.75,2.66,6.75-.1-.26-1.83-6.1-2-7-.19-1.19.33-1.85,1-1.93,1-.12,3.36,7,3.68,7.27,0,0-1.51-4.08-.68-5.05s1.93,1.55,2.47,3.95c.5,2.2,2,6.39,2.33,8.67.35,2.82,0,4.78-2.31,6.18A9,9,0,0,1,281.55,180.11Z" style="fill:#ebb373"></path><path d="M279,167.21a.13.13,0,0,1-.12-.08c-.66-1.69-1.24-3.42-1.73-5.15a.12.12,0,0,1,.08-.15.13.13,0,0,1,.16.08c.49,1.72,1.07,3.45,1.72,5.13a.13.13,0,0,1-.07.16Z" style="opacity:0.30000000000000004"></path><path d="M278.18,168.76a.16.16,0,0,1-.11,0,.14.14,0,0,1,0-.18,12.29,12.29,0,0,1,6.64-2.11h0a.13.13,0,0,1,.12.13.12.12,0,0,1-.12.12,12,12,0,0,0-6.51,2.07Z" style="opacity:0.30000000000000004"></path><path d="M283.16,176.45a.12.12,0,0,1-.12-.09,4.13,4.13,0,0,0-1.67-2.14,4.17,4.17,0,0,0-2.65-.58.12.12,0,0,1-.14-.1.12.12,0,0,1,.11-.14,4.27,4.27,0,0,1,2.81.61,4.35,4.35,0,0,1,1.78,2.27.13.13,0,0,1-.08.16Z" style="opacity:0.30000000000000004"></path></g><g id="freepik--character-1--inject-8"><path d="M185.55,208.41l-16.74,15.83L139.61,210l-9.26,13.61s26.26,12.25,38.35,14.16c9.8,1.54,22.85-26.87,22.85-26.87Z" style="fill:#b97964"></path><path d="M184.52,210.24s-2.42-2-2.62-4.61-1.05-4.6-1.07-6.53,1.71,0,2.41,1.25,1.53,2.62,2.36,1.94,4.17-9.34,5.44-10.15,1.17.76,1.17.76.86-2.08,1.78-2c.24,0,.75.49.5,1.5-.56,2.27-2,7-2,7,.07-.28,2.23-6,2.66-6.77.57-1.06,1.37-1.27,2-.92.85.5-1.58,7.64-1.47,8,0,0,1.26-4.16,2.51-4.42s.6,2.4-.41,4.64c-.94,2-2.24,6.32-3.39,8.31-1.42,2.45-2.93,3.78-5.57,3.52A9.05,9.05,0,0,1,184.52,210.24Z" style="fill:#b97964"></path><path d="M190.32,198.41h0a.13.13,0,0,1-.08-.16c.49-1.74,1.07-3.47,1.72-5.15a.13.13,0,0,1,.24.1c-.65,1.67-1.23,3.39-1.72,5.12A.13.13,0,0,1,190.32,198.41Z" style="opacity:0.30000000000000004"></path><path d="M195.27,201.5a.13.13,0,0,1-.08,0,11.94,11.94,0,0,0-6.43-2.29.12.12,0,0,1-.12-.13.13.13,0,0,1,.13-.12,12.26,12.26,0,0,1,6.57,2.34.13.13,0,0,1,0,.18A.14.14,0,0,1,195.27,201.5Z" style="opacity:0.30000000000000004"></path><path d="M188.08,208.32h0a.12.12,0,0,1-.07-.16,4.13,4.13,0,0,0,0-2.71,4,4,0,0,0-1.76-2.06.13.13,0,0,1,0-.17.11.11,0,0,1,.17-.05,4.27,4.27,0,0,1,1.87,2.19,4.31,4.31,0,0,1,0,2.88A.12.12,0,0,1,188.08,208.32Z" style="opacity:0.30000000000000004"></path><path d="M93.59,169.58C92,171,91.13,173,90,174.8c-2.12,3.38-5.31,6.32-9.22,7.14-2.16.45-4.45.25-6.49,1.08a3.12,3.12,0,0,0-2.09,2.14,2.58,2.58,0,0,0,.76,2.11,5.71,5.71,0,0,0,2,1.23,18,18,0,0,0,9.66,1,27.46,27.46,0,0,0,9.2-3.35l-.33,1a.89.89,0,0,0,1.35,1,8.78,8.78,0,0,0,2.8-3.59A24.48,24.48,0,0,0,99.11,178a20.47,20.47,0,0,1,1.69-6.57l2-3.11A8.28,8.28,0,0,0,93.59,169.58Z" style="fill:#263238"></path><path d="M103.27,167.18a2,2,0,0,0-2.06-.54,5,5,0,0,0-2.78,1.93,10.39,10.39,0,0,0-1.49,3.09,5.49,5.49,0,0,0-.37,1.91,2.1,2.1,0,0,0,3.58,1.64,4.64,4.64,0,0,0,1.47-2.67l1-2.41a5.12,5.12,0,0,0,.78-1.41A1.74,1.74,0,0,0,103.27,167.18Z" style="fill:#407BFF"></path><path d="M134.52,202.15a27,27,0,0,0-13.4-37l-7.14-1.2c-4.92-1.49-10.33,1.51-13.2,5.78s-3.77,9.53-4.47,14.63S95,194.69,92.53,199.21c-3.66,6.73-10.72,10.76-16.16,16.14-1.91,1.89-3.7,4.1-4.12,6.75s1,5.75,3.65,6.32a16,16,0,0,1,2.49.41c2.14.82,2.47,3.77,4.17,5.29,2,1.79,5.13,1.1,7.71,1.87,2.39.72,4.17,2.67,6.1,4.24A21.57,21.57,0,0,0,117,243.92c6.85-2.54,12-9.33,12.22-16.64.1-4.34-1.43-8.7-.67-13C129.33,209.83,132.46,206.19,134.52,202.15Z" style="fill:#263238"></path><path d="M111.85,210s4.16,1.48,9.65,3.77a16.33,16.33,0,0,0,3.56,1c3.3.58,6.14.6,6.39-1a4.83,4.83,0,0,0,.05-1.08c-.15-2.46-1.43-5.57-3.74-6.43-2.6-1-4.06-2.05-4.41-4.4a17.36,17.36,0,0,1-.06-4.21L121,196.29l-11.3-5.81C111.82,196.14,115.32,205.39,111.85,210Z" style="fill:#b97964"></path><path d="M123.44,202.39c-2.79-.62-6.14-2.19-6.73-5a13.42,13.42,0,0,1-.3-3.17l6.8,4.74A16.23,16.23,0,0,0,123.44,202.39Z" style="opacity:0.2"></path><path d="M104.33,182.06c3.65,8.48,5,12.13,11,15.24,9,4.69,18.7-1,17.68-10.28-.93-8.32-6.74-20.78-16.51-21.66A11.82,11.82,0,0,0,104.33,182.06Z" style="fill:#b97964"></path><path d="M116.18,181.56a.24.24,0,0,1-.23-.14,1.54,1.54,0,0,1-.07-1.24,1.16,1.16,0,0,1,.68-.66,1.61,1.61,0,0,1,1.9.94.25.25,0,0,1-.12.33.26.26,0,0,1-.33-.12,1.12,1.12,0,0,0-1.28-.68.65.65,0,0,0-.38.38,1.08,1.08,0,0,0,.05.84.24.24,0,0,1-.12.33A.18.18,0,0,1,116.18,181.56Z" style="fill:#263238"></path><path d="M125.44,178.59a.24.24,0,0,1-.23-.14,1.54,1.54,0,0,1-.07-1.24,1.16,1.16,0,0,1,.68-.66,1.62,1.62,0,0,1,1.9.93.25.25,0,1,1-.45.22A1.12,1.12,0,0,0,126,177a.6.6,0,0,0-.38.38,1.08,1.08,0,0,0,0,.84.24.24,0,0,1-.12.33Z" style="fill:#263238"></path><path d="M113.71,178.59a.39.39,0,0,0,.27-.2,3.33,3.33,0,0,1,2.62-1.74.42.42,0,0,0,.41-.46.48.48,0,0,0-.49-.43,4.13,4.13,0,0,0-3.34,2.16.46.46,0,0,0,.19.61A.46.46,0,0,0,113.71,178.59Z" style="fill:#263238"></path><path d="M126.8,173.84a.47.47,0,0,0,.3-.14.45.45,0,0,0-.09-.63A4.71,4.71,0,0,0,123,172a.41.41,0,0,0-.28.54.49.49,0,0,0,.58.32,3.77,3.77,0,0,1,3.2.91A.5.5,0,0,0,126.8,173.84Z" style="fill:#263238"></path><path d="M125.71,187.45a25.11,25.11,0,0,0-.52,3.72l-.66.07c-3,.25-4.47-.62-5.19-1.66a3.85,3.85,0,0,1-.63-1.73,3.77,3.77,0,0,1,0-1c1.67.82,4.48.79,6,.72C125.31,187.49,125.71,187.45,125.71,187.45Z" style="fill:#263238"></path><path d="M124.69,187.52l-.18,1.09c-2.83.24-4.84,0-5.8-.76a3.77,3.77,0,0,1,0-1C120.38,187.62,123.19,187.59,124.69,187.52Z" style="fill:#fff"></path><path d="M124.53,191.24c-3,.25-4.47-.62-5.19-1.66a9.78,9.78,0,0,1,3.38.37A3.63,3.63,0,0,1,124.53,191.24Z" style="fill:#dc5753"></path><path d="M122.7,178.72a31.24,31.24,0,0,0,4.64,4.36.71.71,0,0,1,0,1.14,4.64,4.64,0,0,1-2.33.8Z" style="fill:#a24e3f"></path><path d="M116.42,179.59l1.85-1.18S117.66,180.31,116.42,179.59Z" style="fill:#263238"></path><path d="M125.42,176.76l1.85-1.33S126.67,177.48,125.42,176.76Z" style="fill:#263238"></path><path d="M125.42,165.58c-6.36-3-22.68-4.85-20.08,3.83-.46.26-.06-.07-.46.26-5.18,4.25-5.85,23.59,2.9,18.85,4.46-2.41.66-6,2.26-13.69.24-1.19-.1-4.71-2.24-5,1.88-.91,12.34,5.58,20.89,3.81C128.69,173.61,132.55,169,125.42,165.58Z" style="fill:#263238"></path><path d="M104,190a7.36,7.36,0,0,0,5.32,1.92c2.51-.17,2.49-4.28.94-6.34a4.9,4.9,0,0,0-6.21-1.31C102,185.48,102.16,188.38,104,190Z" style="fill:#b97964"></path><path d="M109.12,188.34a.24.24,0,0,1-.23-.15,3.38,3.38,0,0,0-4-1.91.25.25,0,0,1-.31-.17.25.25,0,0,1,.18-.31,3.93,3.93,0,0,1,2.72.22,3.88,3.88,0,0,1,1.89,2,.25.25,0,0,1-.13.32A.18.18,0,0,1,109.12,188.34Z" style="opacity:0.2"></path><path d="M136.33,206.5c5.13,1,14.58,6.13,22.95,11.94l-9.53,15.82-6.4-3.71-5.9-19.85Z" style="fill:#407BFF"></path><path d="M136.33,206.5c5.13,1,14.58,6.13,22.95,11.94l-9.53,15.82-6.4-3.71-5.9-19.85Z" style="fill:#fff;opacity:0.6000000000000001"></path><path d="M105.12,231.16l-5.64-21.41c5.08-3.57,17.2-3.91,17.2-3.91l19.65.6,4.77,9.34s4.07,8.65,4.93,15.31c.45,3.45-1.75,17.59-.93,24.26l.76,7.43C124.77,278.23,103.22,277,103.22,277c1-2.8,6.35-11.73,6.85-14.48A144.42,144.42,0,0,0,108.43,247C107.31,239.64,105.1,231.94,105.12,231.16Z" style="fill:#407BFF"></path><g style="opacity:0.6000000000000001"><path d="M105.12,231.16l-5.64-21.41c5.08-3.57,17.2-3.91,17.2-3.91l19.65.6,4.77,9.34s4.07,8.65,4.93,15.31c.45,3.45-1.75,17.59-.93,24.26l.76,7.43C124.77,278.23,103.22,277,103.22,277c1-2.8,6.35-11.73,6.85-14.48A144.42,144.42,0,0,0,108.43,247C107.31,239.64,105.1,231.94,105.12,231.16Z" style="fill:#fff"></path></g><path d="M146.09,232.14s-2.53-11.12-4.29-14.78-1.38-2.9-1.38-2.9,6.11,7.08,7.07,13a23.55,23.55,0,0,1,.42,5.71Z" style="opacity:0.2"></path><path d="M132.38,439.34v-9.53s11-3.34,10.51-3-2.45,12.56-2.45,12.56l-5,4.28Z" style="fill:#b97964"></path><path d="M140.89,438.37H138a2,2,0,0,0-1.64.86c-1.67,2.27-2.92,1.42-4.73-.72-1.15-.14-1.46,1.19-1.55,1.54l-2.16,7.85a1.22,1.22,0,0,0,.85,1.52,1.08,1.08,0,0,0,.36.05H152c3.64,0,4.39-3.66,2.89-4C148.15,444,143.38,442,141.3,440,140.91,439.69,141.31,439.44,140.89,438.37Z" style="fill:#263238"></path><path d="M147.15,440.61a1.18,1.18,0,0,0,.49-.95.51.51,0,0,0-.24-.5c-.9-.65-4.51,1-4.91,1.24a.17.17,0,0,0-.1.1.15.15,0,0,0,.1.2,12.89,12.89,0,0,0,2.7.35A3.28,3.28,0,0,0,147.15,440.61Zm0-1.18a.2.2,0,0,1,.09.22.88.88,0,0,1-.36.68c-.82.62-2.79.35-3.86.15C144.55,439.82,146.68,439.08,147.18,439.43Z" style="fill:#407BFF"></path><path d="M142.61,440.74c1.08-.45,3.35-2.23,3.23-3.18,0-.19-.16-.43-.65-.5-2-.22-2.83,3.33-2.83,3.48a.16.16,0,0,0,0,.17.2.2,0,0,0,.11,0Zm2.51-3.38c.37,0,.37.17.37.21.11.58-1.54,2.06-2.72,2.68.24-.83,1-2.9,2.22-2.9Z" style="fill:#407BFF"></path><path d="M140.44,442.43a.2.2,0,0,1-.13,0,.24.24,0,0,1-.08-.34,3.73,3.73,0,0,1,2.63-1.7.26.26,0,0,1,.28.22.25.25,0,0,1-.22.28,3.25,3.25,0,0,0-2.27,1.46A.25.25,0,0,1,140.44,442.43Z" style="fill:#407BFF"></path><path d="M142.23,443.78a.22.22,0,0,1-.13,0,.25.25,0,0,1-.08-.34,3.75,3.75,0,0,1,2.63-1.7.26.26,0,0,1,.28.22.25.25,0,0,1-.21.28,3.25,3.25,0,0,0-2.28,1.46A.22.22,0,0,1,142.23,443.78Z" style="fill:#407BFF"></path><path d="M144.47,444.92a.33.33,0,0,1-.14,0,.27.27,0,0,1-.08-.35,3.77,3.77,0,0,1,2.63-1.69.26.26,0,0,1,.28.21.24.24,0,0,1-.21.28,3.22,3.22,0,0,0-2.27,1.47A.25.25,0,0,1,144.47,444.92Z" style="fill:#407BFF"></path><path d="M56.81,332.11c.17.16,13.36,5.9,13,6s-6.33,8-6.33,8l-11.07-6.17.26-7.7Z" style="fill:#b97964"></path><path d="M134.19,206.33s.19,8.48-6.4,11.39-10.26.42-14.44-3.33-8.43-7-8.43-7c3.54-.78,7.08-1.46,10.64-2Z" style="fill:#b97964"></path><path d="M149.32,275.15s7.47,33,11,61.74c1.09,8.76,1.29,20.48-.62,29.11l-14.41,71.61-18.12-1.82c2.85-30.88,6.81-69,8-85.18-4-19-12.48-42-20.83-64.84Z" style="fill:#407BFF"></path><path d="M145.53,259.6l-35.46,2.87c-5.1,4.45-13.51,16.45-14.84,29.29-1.42,13.76-3.45,44.13-3.49,51.91l-30-13.4L53.44,347,96.6,366.13c10.42,4.14,17.37-2.06,20.08-12.95.52-2.11.88-3.54.91-3.68l2-8.82c1.87-8.06,4.07-17,5.78-26.13l3.25-14.72c11.41-2.14,21.36-5.36,23.63-7.85C150.74,281.09,147.53,264.52,145.53,259.6Z" style="fill:#407BFF"></path><path d="M125.11,315.91c-.06.3,7-25.47,7-25.47s6,23-3.11,37.39Z" style="isolation:isolate;opacity:0.2"></path><path d="M91.74,343.67a20.88,20.88,0,0,0,.67,12,24.51,24.51,0,0,1-3.48-6.45,18.89,18.89,0,0,1-.49-7.06Z" style="isolation:isolate;opacity:0.2"></path><path d="M116.7,353.33l-15-3.43s7.14,11.91,11.42,11.58a13.4,13.4,0,0,0,2-3.57C116,355.64,116.7,353.33,116.7,353.33Z" style="fill:#b97964"></path><path d="M158.85,370.34,145,372.74s6.92,3.25,12.07,3.11l.67,0Z" style="fill:#b97964"></path><path d="M118.12,232s-1-3,.22-5.28,1.54-4.47,2.55-6.12,1.43.93,1.38,2.35-.09,3,1,2.88,8.48-5.71,10-5.73.59,1.26.59,1.26,1.84-1.3,2.55-.72c.19.16.37.81-.37,1.54-1.67,1.63-5.36,4.88-5.36,4.88.21-.19,5.05-3.87,5.84-4.33,1-.6,1.84-.35,2.17.26.46.88-5.38,5.65-5.49,6,0,0,3.27-2.86,4.48-2.42s-.77,2.35-2.82,3.71c-1.87,1.24-5.23,4.18-7.27,5.26-2.5,1.33-4.48,1.66-6.59,0A9,9,0,0,1,118.12,232Z" style="fill:#b97964"></path><path d="M129.36,225.1a.18.18,0,0,1-.09,0,.13.13,0,0,1,0-.18c1.34-1.21,2.75-2.37,4.19-3.45a.14.14,0,0,1,.18,0,.13.13,0,0,1,0,.18c-1.44,1.08-2.84,2.23-4.17,3.44A.16.16,0,0,1,129.36,225.1Z" style="opacity:0.30000000000000004"></path><path d="M95.25,224s-8.57,21.18-4.92,26.89,14.48-1.71,15.85-2.4S123.62,236,123.62,236l-3.88-6.32-18.39,10,5.7-11.56Z" style="fill:#b97964"></path><path d="M104.23,237.23l-14.75-6.18s5.17-15.2,7-18.75c1.24-2.46,4.66-4.59,8.48-4.87L110.56,220Z" style="fill:#407BFF"></path><path d="M104.23,237.23l-14.75-6.18s5.17-15.2,7-18.75c1.24-2.46,4.66-4.59,8.48-4.87L110.56,220Z" style="fill:#fff;opacity:0.6000000000000001"></path><path d="M52.68,340.77l1.92-2.15a2,2,0,0,0,.46-1.8c-.58-2.75.89-3.11,3.69-3,.87-.77.09-1.88-.11-2.19l-4.4-6.84a1.25,1.25,0,0,0-1.71-.39,1.18,1.18,0,0,0-.27.23l-6.36,7.1L37,341.64c-2.42,2.71-.2,5.71,1.06,4.82,5.6-4,10.26-6.25,13.11-6.5C51.68,339.91,51.61,340.37,52.68,340.77Z" style="fill:#263238"></path><path d="M46.84,343.94a1.19,1.19,0,0,0,.37,1,.53.53,0,0,0,.54.16c1.08-.24,2.23-4.06,2.35-4.49a.17.17,0,0,0,0-.14.17.17,0,0,0-.22-.06,13,13,0,0,0-2.06,1.78A3.2,3.2,0,0,0,46.84,343.94Zm.86.81a.2.2,0,0,1-.23-.07.94.94,0,0,1-.27-.73c.09-1,1.61-2.32,2.46-3C49.16,342.53,48.29,344.61,47.7,344.75Z" style="fill:#407BFF"></path><path d="M49.77,340.47c-.39,1.11-.58,4,.21,4.53.16.12.43.17.8-.15,1.49-1.32-.59-4.33-.7-4.43a.16.16,0,0,0-.16-.07.18.18,0,0,0-.07.08Zm.84,4.13c-.27.25-.37.17-.41.13-.49-.3-.5-2.52-.17-3.81.45.74,1.51,2.66.68,3.59Z" style="fill:#407BFF"></path><path d="M49.68,341a.27.27,0,0,1-.14,0,.24.24,0,0,1-.06-.34A3.26,3.26,0,0,0,49.9,338a.24.24,0,0,1,.17-.3.23.23,0,0,1,.31.17,3.72,3.72,0,0,1-.49,3.09A.26.26,0,0,1,49.68,341Z" style="fill:#407BFF"></path><path d="M47.48,341.46a.23.23,0,0,1-.14,0,.26.26,0,0,1-.07-.35,3.2,3.2,0,0,0,.43-2.67.25.25,0,1,1,.48-.14,3.75,3.75,0,0,1-.49,3.09A.26.26,0,0,1,47.48,341.46Z" style="fill:#407BFF"></path><path d="M45.15,342.37a.24.24,0,0,1-.14-.05.24.24,0,0,1-.07-.34,3.26,3.26,0,0,0,.42-2.68.24.24,0,0,1,.18-.3.25.25,0,0,1,.31.17,3.73,3.73,0,0,1-.5,3.08A.23.23,0,0,1,45.15,342.37Z" style="fill:#407BFF"></path></g></svg>
